<svg width="1158" height="720" viewBox="0 0 1158 720" fill="none" xmlns="http://www.w3.org/2000/svg">
<g opacity="0.3">
<path d="M404.358 1061.64C82.1957 1061.64 41.5875 849.888 55.9772 743.152C77.7513 581.656 256.297 496.435 282.424 447.096C308.553 397.732 282.424 325.967 282.424 325.967C282.424 325.967 469.68 451.581 386.939 581.656C304.2 711.755 452.261 868.767 482.743 774.55C513.228 680.358 487.099 608.568 487.099 608.568C487.099 608.568 595.967 639.965 613.386 805.947C630.804 971.929 447.903 1061.64 404.358 1061.64" fill="#FC0001"/>
<path d="M643.878 294.535C480.141 389.415 539.363 505.373 630.812 595.102C743.634 705.777 787.585 882.198 543.718 958.456C355.463 1017.33 434.849 1070.61 434.849 1070.61C434.849 1070.61 863.246 1164.88 1014.03 895.643C1144.68 662.379 905.162 415.67 905.162 415.67C905.162 415.67 935.646 595.102 805.005 581.657C692.51 570.061 689.903 462.054 739.683 366.329C805.005 240.729 683.07 151 683.07 151C683.07 151 713.554 254.174 643.878 294.535" fill="#FC0001"/>
<path d="M334.685 496.429C-18.0525 657.918 16.7843 989.861 221.459 1066.12C426.134 1142.39 587.257 1016.78 591.613 895.669C595.967 774.559 556.774 698.297 556.774 698.297C556.774 698.297 495.808 904.634 373.875 801.477C251.942 698.297 334.685 496.429 334.685 496.429" fill="#FB6D01"/>
<path d="M710.273 608.581C549.148 545.792 555.805 396.814 593.784 358.496C646.041 305.783 672.708 314.892 697.21 287.855C727.691 254.196 710.273 190.281 710.273 190.281C710.273 190.281 788.661 278.877 723.338 348.42C667.007 408.356 653.663 527.837 710.273 608.581" fill="#FB6D01"/>
<path d="M930.567 462.017C1157.01 693.036 1033.63 989.855 870.328 1045.92C707.023 1101.99 680.894 1099.76 617.751 1063.86C554.606 1027.99 635.17 877.715 750.571 850.782C865.972 823.875 809.361 796.967 754.927 734.158C700.489 671.349 720.812 550.239 720.812 550.239C720.812 550.239 804.279 645.201 882.668 608.564C957.412 573.618 930.567 462.017 930.567 462.017" fill="#FB6D01"/>
<path d="M772.326 637.748C730.957 776.817 944.34 803.735 916.033 911.387C887.726 1019.04 680.877 1045.96 680.877 1045.96C680.877 1045.96 934.357 1096.94 1011.84 929.333C1077.16 788.015 957.402 720.73 874.662 714.006C776.771 706.041 772.326 637.748 772.326 637.748" fill="#EFA204"/>
<path d="M957.416 508.384C1105.48 697.531 1008.73 819.294 947.255 758.836C885.782 698.403 997.334 614.548 957.416 508.384Z" fill="#EFA204"/>
<path d="M265.002 563.727C27.6701 740.909 45.8144 922.604 163.392 1021.29C280.97 1119.97 480.562 1117.72 528.464 998.86C576.366 879.975 500.158 859.794 356.451 828.389C212.747 796.984 265.002 563.727 265.002 563.727Z" fill="#EFA204"/>
<path d="M667.815 678.119C783.213 770.076 822.404 871.003 778.86 960.734C735.311 1050.44 543.704 1086.33 574.186 980.901C604.671 875.5 698.296 855.31 698.296 776.798C698.296 698.309 667.815 678.119 667.815 678.119Z" fill="#EFA204"/>
<path d="M201.868 646.687C42.9206 828.367 119.855 1031.71 220.014 1058.64C320.173 1085.57 469.687 1028 480.573 965.194C491.461 902.39 474.041 870.976 474.041 870.976C474.041 870.976 497.995 902.39 415.253 947.243C332.512 992.096 315.094 980.877 315.094 980.877C315.094 980.877 358.639 918.073 260.659 810.417C162.676 702.76 201.868 646.687 201.868 646.687" fill="#FACF67"/>
<path d="M532.828 705.01C600.326 801.444 561.135 900.157 561.135 900.157C561.135 900.157 561.135 862.02 528.473 823.884C495.813 785.748 532.828 705.01 532.828 705.01Z" fill="#FACF67"/>
<path d="M933.463 971.922C1039.37 884.65 1007.5 794.737 924.753 754.35C842.015 713.986 835.481 725.19 835.481 725.19C835.481 725.19 900.72 798.089 918.221 832.851C948.705 893.42 929.107 971.922 852.901 1012.29C776.69 1052.67 879.029 1016.79 933.463 971.922Z" fill="#FACF67"/>
<path d="M687.42 316.992C604.68 368.571 554.598 402.22 574.194 482.979C599.245 586.188 687.42 581.667 687.42 581.667C687.42 581.667 630.808 525.593 637.338 456.059C643.871 386.526 687.42 316.992 687.42 316.992Z" fill="#FACF67"/>
<path d="M815.879 523.351C883.377 456.07 833.04 428.06 822.41 375.308C814.429 335.68 842.007 294.572 842.007 294.572C842.007 294.572 771.544 366.371 800.637 412.689C848.541 488.957 815.879 523.351 815.879 523.351Z" fill="#FC0001"/>
<path d="M386.937 363.359C404.356 417.198 403.501 444.996 363.711 493.436C283.873 590.642 346.292 656.434 344.84 651.939C343.389 647.469 337.015 556.591 386.937 515.886C456.611 459.059 386.937 363.359 386.937 363.359" fill="#FCE8B3"/>
<path d="M430.493 660.895C402.913 720.717 427.59 752.107 427.59 752.107L430.493 660.895Z" fill="#FC0001"/>
<path d="M986.452 622.014C1051.77 690.799 1064.84 756.598 1011.13 856.765C1018.39 810.422 973.39 776.029 973.39 776.029C973.39 776.029 1015.78 738.672 1014.03 702.75C1012.58 672.85 986.452 622.014 986.452 622.014" fill="#FCE8B3"/>
<path d="M959.586 752.882C987.891 677.36 934.909 649.694 894.264 622.775C853.62 595.881 856.523 524.845 856.523 524.845C856.523 524.845 804.995 576.44 835.476 651.937C857.812 707.27 959.586 752.882 959.586 752.882Z" fill="#FACF67"/>
</g>
<g filter="url(#filter0_f_102_863)">
<circle cx="579" cy="492" r="229" fill="#FF0000"/>
</g>
<defs>
<filter id="filter0_f_102_863" x="0" y="-87" width="1158" height="1158" filterUnits="userSpaceOnUse" color-interpolation-filters="sRGB">
<feFlood flood-opacity="0" result="BackgroundImageFix"/>
<feBlend mode="normal" in="SourceGraphic" in2="BackgroundImageFix" result="shape"/>
<feGaussianBlur stdDeviation="175" result="effect1_foregroundBlur_102_863"/>
</filter>
</defs>
</svg>
