<svg width="98" height="66" viewBox="0 0 98 66" fill="none" xmlns="http://www.w3.org/2000/svg">
<path fill-rule="evenodd" clip-rule="evenodd" d="M48.7609 0.93626C48.7573 0.549676 48.4411 0.239138 48.0545 0.242652C47.6679 0.246166 47.3574 0.562403 47.3609 0.948986L47.4429 9.96168C45.905 10.0246 44.3959 10.177 42.9219 10.4056C42.2721 10.5064 41.6293 10.6219 40.9939 10.7511L38.6702 2.65802C38.5635 2.28644 38.1757 2.0717 37.8042 2.17839C37.4326 2.28508 37.2178 2.67281 37.3245 3.04439L39.624 11.0529C37.0523 11.6637 34.6139 12.4908 32.3466 13.4525L27.8935 7.29911C27.6668 6.98592 27.2292 6.91577 26.916 7.14242C26.6028 7.36907 26.5327 7.8067 26.7593 8.11989L31.0372 14.0312C28.5539 15.1731 26.2981 16.4663 24.3238 17.7929L20.2584 13.9667C19.9769 13.7017 19.5339 13.7152 19.2689 13.9967C19.004 14.2782 19.0174 14.7212 19.2989 14.9862L23.1489 18.6097C21.7908 19.5864 20.5892 20.5681 19.5654 21.5087C19.2808 21.7702 19.262 22.2131 19.5236 22.4978C19.7851 22.7824 20.2279 22.8012 20.5126 22.5396C25.0561 18.3653 33.2832 13.3172 43.1365 11.7891C52.9568 10.266 64.419 12.2323 75.531 22.1135C75.8199 22.3704 76.2624 22.3444 76.5193 22.0555C76.7762 21.7666 76.7502 21.3242 76.4613 21.0673C75.2012 19.9468 73.9357 18.9246 72.6677 17.9947L76.4656 14.562C76.7524 14.3028 76.7748 13.8601 76.5155 13.5733C76.2563 13.2865 75.8136 13.2641 75.5268 13.5234L71.4989 17.164C69.4243 15.7361 67.3452 14.55 65.274 13.5797L69.2851 7.75971C69.5044 7.44139 69.4242 7.00549 69.1059 6.7861C68.7876 6.56672 68.3517 6.64692 68.1323 6.96525L63.9743 12.9984C61.4532 11.9239 58.9477 11.1624 56.4804 10.6666L58.7984 2.43368C58.9032 2.06155 58.6865 1.67494 58.3143 1.57016C57.9422 1.46539 57.5556 1.68213 57.4508 2.05426L55.0967 10.4155C52.9754 10.0714 50.8859 9.91964 48.8426 9.92961L48.7609 0.93626ZM20.9045 28.9965L21.0377 28.8778L20.9045 28.7591C25.4708 23.6349 33.6386 17.4793 43.3347 15.703C52.962 13.9394 63.9971 16.514 74.3665 28.4467L74.7947 28.8103L74.7373 28.8778L74.7947 28.9453L74.3665 29.3089C63.9971 41.2416 52.962 43.8163 43.3347 42.0526C33.6386 40.2763 25.4708 34.1208 20.9045 28.9965ZM43.5869 40.6755C34.7875 39.0635 27.2354 33.6625 22.6973 28.8778C27.2354 24.0932 34.7875 18.6921 43.5869 17.0801C52.5695 15.4345 62.9471 17.7171 72.8812 28.8778C62.9471 40.0385 52.5695 42.3211 43.5869 40.6755ZM56.8982 29.138C56.8982 34.0666 52.9028 38.0619 47.9743 38.0619C43.0458 38.0619 39.0504 34.0666 39.0504 29.138C39.0504 24.2095 43.0458 20.2142 47.9743 20.2142C52.9028 20.2142 56.8982 24.2095 56.8982 29.138ZM58.2982 29.138C58.2982 34.8398 53.676 39.4619 47.9743 39.4619C42.2726 39.4619 37.6504 34.8398 37.6504 29.138C37.6504 23.4363 42.2726 18.8142 47.9743 18.8142C53.676 18.8142 58.2982 23.4363 58.2982 29.138ZM47.8008 33.2036C50.0461 33.2036 51.8663 31.3834 51.8663 29.138C51.8663 26.8927 50.0461 25.0725 47.8008 25.0725C45.5554 25.0725 43.7352 26.8927 43.7352 29.138C43.7352 31.3834 45.5554 33.2036 47.8008 33.2036ZM47.8008 34.6036C50.8193 34.6036 53.2663 32.1566 53.2663 29.138C53.2663 26.1195 50.8193 23.6725 47.8008 23.6725C44.7822 23.6725 42.3352 26.1195 42.3352 29.138C42.3352 32.1566 44.7822 34.6036 47.8008 34.6036Z" fill="#FF9533"/>
<path d="M9.552 56.176C10.192 56.3787 10.6933 56.72 11.056 57.2C11.4187 57.6693 11.6 58.2507 11.6 58.944C11.6 59.9253 11.216 60.6827 10.448 61.216C9.69067 61.7387 8.58133 62 7.12 62H1.328V50.8H6.8C8.16533 50.8 9.21067 51.0613 9.936 51.584C10.672 52.1067 11.04 52.816 11.04 53.712C11.04 54.256 10.9067 54.7413 10.64 55.168C10.384 55.5947 10.0213 55.9307 9.552 56.176ZM3.904 52.752V55.392H6.48C7.12 55.392 7.60533 55.28 7.936 55.056C8.26667 54.832 8.432 54.5013 8.432 54.064C8.432 53.6267 8.26667 53.3013 7.936 53.088C7.60533 52.864 7.12 52.752 6.48 52.752H3.904ZM6.928 60.048C7.61067 60.048 8.12267 59.936 8.464 59.712C8.816 59.488 8.992 59.1413 8.992 58.672C8.992 57.744 8.304 57.28 6.928 57.28H3.904V60.048H6.928ZM13.3864 53.392H15.8824V62H13.3864V53.392ZM14.6344 52.192C14.1757 52.192 13.8024 52.0587 13.5144 51.792C13.2264 51.5253 13.0824 51.1947 13.0824 50.8C13.0824 50.4053 13.2264 50.0747 13.5144 49.808C13.8024 49.5413 14.1757 49.408 14.6344 49.408C15.093 49.408 15.4664 49.536 15.7544 49.792C16.0424 50.048 16.1864 50.368 16.1864 50.752C16.1864 51.168 16.0424 51.5147 15.7544 51.792C15.4664 52.0587 15.093 52.192 14.6344 52.192ZM27.0789 53.392V60.56C27.0789 62.1387 26.6682 63.312 25.8469 64.08C25.0255 64.848 23.8255 65.232 22.2469 65.232C21.4149 65.232 20.6255 65.1307 19.8789 64.928C19.1322 64.7253 18.5135 64.432 18.0229 64.048L19.0149 62.256C19.3775 62.5547 19.8362 62.7893 20.3909 62.96C20.9455 63.1413 21.5002 63.232 22.0549 63.232C22.9189 63.232 23.5535 63.0347 23.9589 62.64C24.3749 62.256 24.5829 61.6693 24.5829 60.88V60.512C23.9322 61.2267 23.0255 61.584 21.8629 61.584C21.0735 61.584 20.3482 61.4133 19.6869 61.072C19.0362 60.72 18.5189 60.2293 18.1349 59.6C17.7509 58.9707 17.5589 58.2453 17.5589 57.424C17.5589 56.6027 17.7509 55.8773 18.1349 55.248C18.5189 54.6187 19.0362 54.1333 19.6869 53.792C20.3482 53.44 21.0735 53.264 21.8629 53.264C23.1109 53.264 24.0602 53.6747 24.7109 54.496V53.392H27.0789ZM22.3589 59.536C23.0202 59.536 23.5589 59.344 23.9749 58.96C24.4015 58.5653 24.6149 58.0533 24.6149 57.424C24.6149 56.7947 24.4015 56.288 23.9749 55.904C23.5589 55.5093 23.0202 55.312 22.3589 55.312C21.6975 55.312 21.1535 55.5093 20.7269 55.904C20.3002 56.288 20.0869 56.7947 20.0869 57.424C20.0869 58.0533 20.3002 58.5653 20.7269 58.96C21.1535 59.344 21.6975 59.536 22.3589 59.536ZM42.3333 56.176C42.9733 56.3787 43.4746 56.72 43.8373 57.2C44.1999 57.6693 44.3813 58.2507 44.3813 58.944C44.3813 59.9253 43.9973 60.6827 43.2293 61.216C42.4719 61.7387 41.3626 62 39.9013 62H34.1093V50.8H39.5813C40.9466 50.8 41.9919 51.0613 42.7173 51.584C43.4533 52.1067 43.8213 52.816 43.8213 53.712C43.8213 54.256 43.6879 54.7413 43.4213 55.168C43.1653 55.5947 42.8026 55.9307 42.3333 56.176ZM36.6853 52.752V55.392H39.2613C39.9013 55.392 40.3866 55.28 40.7173 55.056C41.0479 54.832 41.2133 54.5013 41.2133 54.064C41.2133 53.6267 41.0479 53.3013 40.7173 53.088C40.3866 52.864 39.9013 52.752 39.2613 52.752H36.6853ZM39.7093 60.048C40.3919 60.048 40.9039 59.936 41.2453 59.712C41.5973 59.488 41.7733 59.1413 41.7733 58.672C41.7733 57.744 41.0853 57.28 39.7093 57.28H36.6853V60.048H39.7093ZM48.5516 54.528C48.8503 54.112 49.2503 53.7973 49.7516 53.584C50.2636 53.3707 50.8503 53.264 51.5116 53.264V55.568C51.2343 55.5467 51.0476 55.536 50.9516 55.536C50.237 55.536 49.677 55.7387 49.2716 56.144C48.8663 56.5387 48.6636 57.136 48.6636 57.936V62H46.1676V53.392H48.5516V54.528ZM57.0136 62.128C56.107 62.128 55.291 61.9413 54.5656 61.568C53.851 61.184 53.291 60.656 52.8856 59.984C52.4803 59.312 52.2776 58.5493 52.2776 57.696C52.2776 56.8427 52.4803 56.08 52.8856 55.408C53.291 54.736 53.851 54.2133 54.5656 53.84C55.291 53.456 56.107 53.264 57.0136 53.264C57.9203 53.264 58.731 53.456 59.4456 53.84C60.1603 54.2133 60.7203 54.736 61.1256 55.408C61.531 56.08 61.7336 56.8427 61.7336 57.696C61.7336 58.5493 61.531 59.312 61.1256 59.984C60.7203 60.656 60.1603 61.184 59.4456 61.568C58.731 61.9413 57.9203 62.128 57.0136 62.128ZM57.0136 60.08C57.6536 60.08 58.1763 59.8667 58.5816 59.44C58.9976 59.0027 59.2056 58.4213 59.2056 57.696C59.2056 56.9707 58.9976 56.3947 58.5816 55.968C58.1763 55.5307 57.6536 55.312 57.0136 55.312C56.3736 55.312 55.8456 55.5307 55.4296 55.968C55.0136 56.3947 54.8056 56.9707 54.8056 57.696C54.8056 58.4213 55.0136 59.0027 55.4296 59.44C55.8456 59.8667 56.3736 60.08 57.0136 60.08ZM68.954 61.584C68.7087 61.7653 68.4047 61.904 68.042 62C67.69 62.0853 67.3167 62.128 66.922 62.128C65.898 62.128 65.1033 61.8667 64.538 61.344C63.9833 60.8213 63.706 60.0533 63.706 59.04V55.504H62.378V53.584H63.706V51.488H66.202V53.584H68.346V55.504H66.202V59.008C66.202 59.3707 66.2927 59.6533 66.474 59.856C66.666 60.048 66.9327 60.144 67.274 60.144C67.6687 60.144 68.0047 60.0373 68.282 59.824L68.954 61.584ZM75.5871 53.264C76.6538 53.264 77.5125 53.584 78.1631 54.224C78.8245 54.864 79.1551 55.8133 79.1551 57.072V62H76.6591V57.456C76.6591 56.7733 76.5098 56.2667 76.2111 55.936C75.9125 55.5947 75.4805 55.424 74.9151 55.424C74.2858 55.424 73.7845 55.6213 73.4111 56.016C73.0378 56.4 72.8511 56.976 72.8511 57.744V62H70.3551V50.128H72.8511V54.288C73.1818 53.9573 73.5818 53.7067 74.0511 53.536C74.5205 53.3547 75.0325 53.264 75.5871 53.264ZM89.9434 57.728C89.9434 57.76 89.9274 57.984 89.8954 58.4H83.3834C83.5007 58.9333 83.778 59.3547 84.2154 59.664C84.6527 59.9733 85.1967 60.128 85.8474 60.128C86.2954 60.128 86.69 60.064 87.0314 59.936C87.3834 59.7973 87.7087 59.584 88.0074 59.296L89.3354 60.736C88.5247 61.664 87.3407 62.128 85.7834 62.128C84.8127 62.128 83.954 61.9413 83.2074 61.568C82.4607 61.184 81.8847 60.656 81.4794 59.984C81.074 59.312 80.8714 58.5493 80.8714 57.696C80.8714 56.8533 81.0687 56.096 81.4634 55.424C81.8687 54.7413 82.418 54.2133 83.1114 53.84C83.8154 53.456 84.5994 53.264 85.4634 53.264C86.306 53.264 87.0687 53.4453 87.7514 53.808C88.434 54.1707 88.9674 54.6933 89.3514 55.376C89.746 56.048 89.9434 56.832 89.9434 57.728ZM85.4794 55.152C84.914 55.152 84.4394 55.312 84.0554 55.632C83.6714 55.952 83.4367 56.3893 83.3514 56.944H87.5914C87.506 56.4 87.2714 55.968 86.8874 55.648C86.5034 55.3173 86.034 55.152 85.4794 55.152ZM93.9891 54.528C94.2878 54.112 94.6878 53.7973 95.1891 53.584C95.7011 53.3707 96.2878 53.264 96.9491 53.264V55.568C96.6718 55.5467 96.4851 55.536 96.3891 55.536C95.6745 55.536 95.1145 55.7387 94.7091 56.144C94.3038 56.5387 94.1011 57.136 94.1011 57.936V62H91.6051V53.392H93.9891V54.528Z" fill="#FF9533"/>
</svg>
